<?xml version="1.0" standalone="no"?>
<!DOCTYPE svg PUBLIC "-//W3C//DTD SVG 20010904//EN"
 "http://www.w3.org/TR/2001/REC-SVG-20010904/DTD/svg10.dtd">
<svg version="1.0" xmlns="http://www.w3.org/2000/svg"
 width="154.000000pt" height="154.000000pt" viewBox="0 0 154.000000 154.000000"
 preserveAspectRatio="xMidYMid meet">
<metadata>
Created by potrace 1.11, written by Peter Selinger 2001-2013
</metadata>
<g transform="translate(0.000000,154.000000) scale(0.100000,-0.100000)"
fill="#000000" stroke="none">
<path d="M858 1522 c-25 -13 -38 -30 -55 -72 -27 -70 -43 -73 -168 -28 -76 26
-98 31 -121 23 -39 -14 -54 -73 -31 -121 17 -35 89 -94 115 -94 11 0 13 -8 8
-31 -3 -17 -6 -40 -6 -50 0 -12 -18 -26 -60 -45 -70 -31 -126 -88 -217 -220
-34 -49 -94 -123 -134 -163 -99 -103 -121 -167 -99 -285 46 -243 321 -416 681
-429 250 -9 422 46 553 178 146 147 180 327 95 498 -38 78 -60 107 -151 206
-43 46 -78 88 -78 93 0 5 -4 6 -10 3 -5 -3 -10 0 -10 8 0 8 -14 28 -30 46 -17
17 -28 31 -25 31 3 0 -2 11 -11 25 -17 26 -55 147 -56 175 0 8 8 35 17 60 22
58 15 123 -15 155 -42 45 -139 63 -192 37z m77 -139 c-9 -16 -35 -41 -58 -58
-36 -26 -51 -30 -107 -30 -48 0 -77 6 -113 24 -56 27 -56 39 0 20 88 -29 207
-6 257 50 27 30 40 26 21 -6z m-210 -342 c-6 -4 -57 -43 -114 -86 -120 -90
-234 -195 -288 -266 -21 -28 -39 -45 -41 -40 -2 6 11 40 29 77 58 117 179 221
339 290 83 36 88 38 75 25z m97 -235 l26 -53 75 1 c60 1 79 -3 96 -18 28 -26
26 -50 -5 -75 l-26 -21 -30 25 c-16 14 -41 25 -55 25 -22 0 -24 -3 -19 -22 4
-13 12 -45 18 -71 7 -27 19 -52 27 -56 9 -5 44 -11 78 -14 72 -7 98 -18 106
-46 5 -21 -20 -65 -49 -85 -38 -27 -95 -56 -109 -56 -11 0 -15 -12 -16 -42 -1
-75 -5 -90 -30 -109 -33 -25 -44 -11 -47 62 -1 35 -4 64 -5 65 -1 1 -33 4 -70
8 -69 6 -137 28 -137 43 0 14 14 30 38 42 17 9 33 9 74 -4 65 -19 99 -20 92
-2 -3 8 -6 26 -7 42 -2 24 -9 29 -57 44 -96 30 -140 63 -140 106 0 32 40 86
77 104 39 19 39 20 13 72 -22 42 -17 69 17 88 26 14 37 5 65 -53z"/>
<path d="M754 655 c-12 -8 -25 -11 -29 -7 -5 4 1 -6 12 -23 12 -16 36 -39 53
-49 l33 -19 -7 29 c-10 42 -27 84 -35 84 -4 0 -16 -7 -27 -15z"/>
<path d="M928 435 c5 -38 7 -39 75 -13 46 18 30 30 -54 44 -23 4 -25 2 -21
-31z"/>
</g>
</svg>
